<svg xmlns="http://www.w3.org/2000/svg" width="32" height="32" viewBox="0 0 32 32" fill="none">
  <rect width="32" height="32" rx="8" fill="#111118" stroke="#C9A84C" stroke-width="0.5" opacity="0.5"/>
  <ellipse cx="16" cy="8" rx="9" ry="2" fill="#C9A84C"/>
  <ellipse cx="16" cy="8" rx="5" ry="1.5" fill="#E8C96A"/>
  <ellipse cx="16" cy="14" rx="6" ry="5.5" fill="#F4C17A"/>
  <path d="M10 12 Q11 7 16 7.5 Q21 7 22 12" fill="#1A0A00"/>
  <circle cx="13" cy="12.5" r="1.8" fill="white"/>
  <circle cx="19" cy="12.5" r="1.8" fill="white"/>
  <circle cx="13" cy="13" r="1" fill="#1A0A00"/>
  <circle cx="19" cy="13" r="1" fill="#1A0A00"/>
  <path d="M12 17 Q16 22 20 17" fill="#C0392B"/>
  <path d="M12 17 Q16 20 20 17" fill="#E74C3C"/>
  <path d="M10 19 Q7 21 8 25 L24 25 Q25 21 22 19 Q19 21 16 21 Q13 21 10 19Z" fill="#378ADD"/>
  <circle cx="5" cy="23" r="3" fill="#C0392B"/>
  <circle cx="27" cy="23" r="2.5" fill="#F39C12"/>
</svg>